<!-- Generated by IcoMoon.io -->
<svg version="1.1" xmlns="http://www.w3.org/2000/svg" width="32" height="32" viewBox="0 0 32 32">
<title>basket</title>
<path d="M27.791 23.506h-18.15c-0.622 0-1.134-0.188-1.522-0.559-0.344-0.328-0.578-0.791-0.713-1.406-0.172-0.794-2.528-12.947-3.244-16.653l-0.019-0.103c-0.078-0.388-0.163-0.778-0.256-0.928-0.044-0.072-0.144-0.15-0.5-0.334l-0.003-0.003c-0.45-0.234-2.156-1.003-2.778-1.281-0.428-0.191-0.619-0.688-0.428-1.109 0.191-0.425 0.688-0.616 1.109-0.425 0.094 0.041 2.281 1.016 2.872 1.325 1.128 0.581 1.35 1.016 1.631 2.428l0.022 0.109c1.475 7.628 3.103 15.997 3.238 16.612 0.141 0.644 0.319 0.644 0.591 0.644h18.153c0.466 0 0.841 0.375 0.841 0.841s-0.378 0.844-0.844 0.844zM29.091 19.15c0.406-0.203 0.672-0.541 0.813-1.038l0.009-0.038 0.016-0.078c0.159-0.841 0.575-3.019 0.975-5.119 0.65-3.422 0.819-4.334 0.863-4.625v0c0.113-0.597 0.181-1.35-0.275-1.9-0.512-0.616-1.369-0.616-2.128-0.616l-23.288 0.084 2.6 13.553h19.116c0.606 0 0.981-0.066 1.3-0.225zM6.369 7.419h23c0.159 0 0.591 0 0.803 0.037 0.003 0.084-0.006 0.237-0.053 0.487l-0.016 0.078v0.016c-0.1 0.588-1.031 5.491-1.822 9.625-0.072 0.016-0.212 0.031-0.491 0.031h-19.422l-2-10.275zM30.109 7.994c0 0 0 0 0 0s0 0 0 0zM16.637 27.084c0-1.703-1.384-3.087-3.088-3.087s-3.088 1.384-3.088 3.087c0 1.703 1.384 3.087 3.088 3.087s3.088-1.384 3.088-3.087zM14.956 27.084c0 0.775-0.631 1.406-1.406 1.406s-1.406-0.631-1.406-1.406 0.631-1.406 1.406-1.406 1.406 0.631 1.406 1.406zM26.35 27.084c0-1.703-1.384-3.087-3.087-3.087s-3.087 1.384-3.087 3.087c0 1.703 1.384 3.087 3.087 3.087s3.087-1.384 3.087-3.087zM24.669 27.084c0 0.775-0.631 1.406-1.406 1.406s-1.406-0.631-1.406-1.406 0.631-1.406 1.406-1.406 1.406 0.631 1.406 1.406zM24.884 10.6c0-0.466-0.375-0.841-0.841-0.841h-11.522c-0.466 0-0.841 0.375-0.841 0.841s0.375 0.841 0.841 0.841h11.522c0.462 0 0.841-0.378 0.841-0.841zM24.341 14.894c0-0.466-0.375-0.841-0.841-0.841h-10.272c-0.466 0-0.841 0.375-0.841 0.841s0.375 0.841 0.841 0.841h10.272c0.462 0 0.841-0.378 0.841-0.841z"></path>
</svg>
