<!-- Generated by IcoMoon.io -->
<svg version="1.1" xmlns="http://www.w3.org/2000/svg" width="32" height="32" viewBox="0 0 32 32">
<title>begin</title>
<path d="M17.628 30.837c-0.291 0-0.872 0-1.163-0.291l-13.091-13.675c-0.581-0.581-0.581-1.453 0-2.037l13.091-13.088c0.581-0.581 1.453-0.581 2.038 0s0.581 1.453 0 2.038l-12.219 12.219 12.219 12.219c0.581 0.581 0.581 1.453 0 2.038-0.294 0.288-0.584 0.578-0.875 0.578v0zM27.753 30.837c-0.291 0-0.872 0-1.163-0.291l-13.091-13.675c-0.581-0.581-0.581-1.453 0-2.037l13.091-13.088c0.581-0.581 1.453-0.581 2.038 0s0.581 1.453 0 2.038l-12.219 12.219 12.219 12.219c0.581 0.581 0.581 1.453 0 2.038-0.294 0.288-0.584 0.578-0.875 0.578v0z"></path>
</svg>
