<!-- Generated by IcoMoon.io -->
<svg version="1.1" xmlns="http://www.w3.org/2000/svg" width="32" height="32" viewBox="0 0 32 32">
<title>circle-close</title>
<path d="M16.12 32.134c8.864 0 16.067-7.203 16.067-16.067s-7.203-16.067-16.067-16.067-16.067 7.203-16.067 16.067 7.203 16.067 16.067 16.067zM16.12 1.165c8.221 0 14.902 6.681 14.902 14.902s-6.681 14.902-14.902 14.902-14.915-6.681-14.915-14.902 6.695-14.902 14.915-14.902zM10.765 22.239l5.356-5.356 5.356 5.356c0.107 0.107 0.268 0.174 0.415 0.174s0.295-0.054 0.415-0.174c0.228-0.228 0.228-0.589 0-0.817l-5.356-5.356 5.356-5.356c0.228-0.228 0.228-0.589 0-0.817s-0.589-0.228-0.817 0l-5.356 5.356-5.356-5.356c-0.228-0.228-0.589-0.228-0.817 0s-0.228 0.589 0 0.817l5.356 5.356-5.356 5.356c-0.228 0.228-0.228 0.589 0 0.817 0.12 0.107 0.268 0.174 0.415 0.174 0.12 0 0.268-0.054 0.388-0.174z"></path>
</svg>
