<?xml version="1.0" encoding="utf-8"?>
<!-- Generator: Adobe Illustrator 22.0.1, SVG Export Plug-In . SVG Version: 6.00 Build 0)  -->
<svg version="1.1" id="Слой_1" xmlns="http://www.w3.org/2000/svg" xmlns:xlink="http://www.w3.org/1999/xlink" x="0px" y="0px"
	 viewBox="0 0 498 498" style="enable-background:new 0 0 498 498;" xml:space="preserve">
<path d="M249.4,1c-137,0-248,111-248,248s111,248,248,248s248-111,248-248S386.4,1,249.4,1z M249.4,449c-110.5,0-200-89.5-200-200
	s89.5-200,200-200s200,89.5,200,200S359.9,449,249.4,449z M230.3,204.5v128.7c0,3.9-3.2,7.2-7.2,7.2h-14.3c-3.9,0-7.2-3.2-7.2-7.2
	V204.5c0-3.9,3.2-7.2,7.2-7.2h14.3C227.1,197.3,230.3,200.5,230.3,204.5z M289.9,197.3h-14.3c-3.9,0-7.2,3.2-7.2,7.2v128.7
	c0,3.9,3.2,7.2,7.2,7.2h14.3c3.9,0,7.2-3.2,7.2-7.2V204.5C297.1,200.5,293.9,197.3,289.9,197.3z M368.6,140.1
	c7.9,0,14.3,6.4,14.3,14.3v7.2c0,3.9-3.2,7.2-7.2,7.2h-11.9V369c0,15.8-12.8,28.6-28.6,28.6H163.6c-15.8,0-28.6-12.8-28.6-28.6
	V168.7h-11.9c-3.9,0-7.2-3.2-7.2-7.2v-7.2c0-7.9,6.4-14.3,14.3-14.3h44.3l20.3-33.8c5.2-8.6,14.5-13.9,24.5-13.9h60.1
	c10,0,19.4,5.3,24.5,13.9l20.3,33.8H368.6z M207.9,140.1h83l-10.4-17.3c-0.6-1.1-1.8-1.7-3.1-1.7h-56c-1.3,0-2.4,0.7-3.1,1.7
	L207.9,140.1z M335.2,168.7H163.6v196.7c0,2,1.6,3.6,3.6,3.6h164.5c2,0,3.6-1.6,3.6-3.6V168.7z"/>
</svg>
