<!-- Generated by IcoMoon.io -->
<svg version="1.1" xmlns="http://www.w3.org/2000/svg" width="32" height="32" viewBox="0 0 32 32">
<title>desktop</title>
<path d="M29.722 3.261h-27.44c-0.531 0-0.989 0.195-1.379 0.582s-0.582 0.845-0.582 1.376v16.659c0 0.531 0.195 0.989 0.582 1.379s0.848 0.582 1.379 0.582h12.739v2.941h-4.899c-0.285 0-0.522 0.093-0.704 0.275s-0.275 0.419-0.275 0.704 0.093 0.522 0.275 0.704 0.419 0.275 0.704 0.275h11.76c0.285 0 0.522-0.093 0.704-0.275s0.275-0.419 0.275-0.704-0.093-0.522-0.275-0.704-0.419-0.275-0.704-0.275h-4.902v-2.941h12.739c0.531 0 0.989-0.195 1.379-0.582s0.582-0.848 0.582-1.379v-16.659c0-0.531-0.195-0.989-0.582-1.379s-0.848-0.579-1.376-0.579zM29.722 21.882h-27.44v-16.659h27.44v16.659z"></path>
</svg>
