<!-- Generated by IcoMoon.io -->
<svg version="1.1" xmlns="http://www.w3.org/2000/svg" width="32" height="32" viewBox="0 0 32 32">
<title>download</title>
<path d="M18.509 3.574c-0.051 0.013-0.32 0.058-0.589 0.099-2.406 0.39-4.685 2.141-5.747 4.41-0.144 0.294-0.256 0.566-0.256 0.602 0 0.163-0.144 0.131-0.445-0.086-2.23-1.597-5.363-0.784-6.602 1.715-0.365 0.736-0.509 1.658-0.384 2.467 0.125 0.854 0.138 0.81-0.269 0.941-1.443 0.467-2.637 1.491-3.322 2.854-0.365 0.723-0.528 1.35-0.566 2.23-0.058 1.245 0.234 2.336 0.886 3.328 0.742 1.13 1.728 1.872 3.072 2.323l0.554 0.189 6.259 0.038-0.125-0.141c-0.070-0.083-0.723-0.797-1.456-1.584l-1.331-1.44 2.323-0.019 2.323-0.013v-7.702h6.33v7.699l2.317 0.013 2.31 0.019-1.45 1.565-1.446 1.565 2.406 0.019c1.971 0.013 2.512-0.006 2.963-0.086 2.054-0.384 3.77-1.69 4.717-3.587 1.67-3.341 0.234-7.379-3.184-8.982l-0.547-0.256v-0.509c0-0.928-0.282-2.128-0.723-3.126-0.314-0.691-0.986-1.645-1.584-2.243-1.52-1.52-3.536-2.349-5.648-2.33-0.384 0.010-0.736 0.022-0.787 0.029zM13.811 18.614v3.85l-1.683 0.013-1.69 0.019 2.746 2.97c1.507 1.632 2.758 2.976 2.784 2.989s1.286-1.325 2.806-2.97l2.762-2.989-1.677-0.019-1.677-0.013v-7.699h-4.371v3.85z"></path>
</svg>
