<?xml version="1.0" encoding="utf-8"?>
<!-- Generator: Adobe Illustrator 22.0.1, SVG Export Plug-In . SVG Version: 6.00 Build 0)  -->
<svg version="1.1" id="Слой_1" xmlns="http://www.w3.org/2000/svg" xmlns:xlink="http://www.w3.org/1999/xlink" x="0px" y="0px"
	 viewBox="0 0 512 512" style="enable-background:new 0 0 512 512;" xml:space="preserve">
<path d="M256,0.5C114.9,0.5,0.5,114.9,0.5,256S114.9,511.5,256,511.5S511.5,397.1,511.5,256S397.1,0.5,256,0.5z M256,462
	c-113.8,0-206-92.2-206-206S142.2,50,256,50s206,92.2,206,206S369.8,462,256,462z M399.8,208.2L219,389l-62.2,6.9
	c-18,2-33.4-13.2-31.4-31.4l6.9-62.2l180.8-180.8c15.8-15.8,41.2-15.8,56.9,0l29.7,29.7C415.5,167,415.5,192.5,399.8,208.2
	L399.8,208.2z M331.8,229.5l-40-40l-127.9,128l-5,45l45-5L331.8,229.5z M376.4,174.6l-29.7-29.7c-2.8-2.8-7.4-2.8-10.2,0l-21.3,21.3
	l40,40l21.3-21.3C379.2,182,379.2,177.4,376.4,174.6z"/>
</svg>
