<!-- Generated by IcoMoon.io -->
<svg version="1.1" xmlns="http://www.w3.org/2000/svg" width="32" height="32" viewBox="0 0 32 32">
<title>end</title>
<path d="M14.372 1.309c0.291 0 0.872 0 1.162 0.291l13.091 13.672c0.581 0.581 0.581 1.453 0 2.037l-13.091 13.091c-0.581 0.581-1.453 0.581-2.037 0s-0.581-1.453 0-2.038l12.219-12.219-12.219-12.219c-0.581-0.581-0.581-1.453 0-2.038 0.294-0.288 0.584-0.578 0.875-0.578v0zM4.247 1.309c0.291 0 0.872 0 1.163 0.291l13.091 13.672c0.581 0.581 0.581 1.453 0 2.037l-13.091 13.091c-0.581 0.581-1.453 0.581-2.038 0s-0.581-1.453 0-2.038l12.219-12.219-12.219-12.219c-0.581-0.581-0.581-1.453 0-2.038 0.294-0.288 0.584-0.578 0.875-0.578v0z"></path>
</svg>
