<!-- Generated by IcoMoon.io -->
<svg version="1.1" xmlns="http://www.w3.org/2000/svg" width="32" height="32" viewBox="0 0 32 32">
<title>error</title>
<path d="M15.875 20.063c0.688 0 1.25-0.563 1.25-1.25v-8.75c0-0.688-0.563-1.25-1.25-1.25s-1.25 0.563-1.25 1.25v8.75c0 0.688 0.563 1.25 1.25 1.25zM15.875 22.656c1 0 1.806 0.806 1.806 1.806s-0.806 1.806-1.806 1.806-1.806-0.806-1.806-1.806 0.806-1.806 1.806-1.806zM31.625 26.387l-12.844-24.169c-0.625-1.181-1.75-1.881-3.012-1.881h-0.031c-1.269 0.013-2.394 0.731-3.006 1.931l-12.275 24.144c-0.619 1.219-0.563 2.7 0.15 3.863 0.644 1.050 1.725 1.688 2.894 1.688l25.131 0.037c1.181 0 2.262-0.644 2.9-1.706 0.706-1.181 0.744-2.681 0.094-3.906zM29.387 29.006c-0.106 0.181-0.35 0.494-0.756 0.494l-25.125-0.038c-0.406 0-0.65-0.306-0.763-0.488-0.206-0.337-0.325-0.887-0.056-1.425l12.281-24.156c0.181-0.356 0.475-0.581 0.8-0.581h0.006c0.325 0 0.619 0.212 0.806 0.569l12.837 24.181c0.288 0.538 0.169 1.106-0.031 1.444z"></path>
</svg>
