<?xml version="1.0" encoding="utf-8"?>
<!-- Generator: Adobe Illustrator 22.0.1, SVG Export Plug-In . SVG Version: 6.00 Build 0)  -->
<svg version="1.1" id="Слой_1" xmlns="http://www.w3.org/2000/svg" xmlns:xlink="http://www.w3.org/1999/xlink" x="0px" y="0px"
	 viewBox="0 0 494 494" style="enable-background:new 0 0 494 494;" xml:space="preserve">
<path d="M247-1C110-1-1,110-1,247s111,248,248,248s248-111,248-248S384-1,247-1z M247,447c-110.5,0-200-89.5-200-200
	S136.5,47,247,47s200,89.5,200,200S357.5,447,247,447z M119,142c-22.1,0-40,17.9-40,40s17.9,40,40,40s40-17.9,40-40
	S141.1,142,119,142z M87,342h320v-80l-87.5-87.5c-4.7-4.7-12.3-4.7-17,0L183,294l-39.5-39.5c-4.7-4.7-12.3-4.7-17,0L87,294V342z"/>
</svg>
