<!-- Generated by IcoMoon.io -->
<svg version="1.1" xmlns="http://www.w3.org/2000/svg" width="32" height="32" viewBox="0 0 32 32">
<title>mobile</title>
<path d="M23.722 0.32h-15.443c-0.867 0-1.571 0.704-1.571 1.574v28.214c0 0.87 0.704 1.574 1.571 1.574h15.44c0.867 0 1.571-0.704 1.571-1.574v-28.214c0.003-0.87-0.701-1.574-1.568-1.574zM24.131 30.106c0 0.227-0.182 0.413-0.41 0.413h-15.443c-0.227 0-0.41-0.186-0.41-0.413v-5.392h16.262v5.392zM24.131 23.552h-16.262v-18.563h16.262v18.563zM24.131 3.827h-16.262v-1.933c0-0.227 0.182-0.413 0.41-0.413h15.44c0.227 0 0.41 0.186 0.41 0.413v1.933h0.003zM13.677 27.034h4.646v1.162h-4.646v-1.162z"></path>
</svg>
