<svg version="1.1" xmlns="http://www.w3.org/2000/svg" width="1024" height="1024" viewBox="0 0 1024 1024">
	<path d="M369.968 895.574c20.743 0 37.37-16.079 37.37-36.822v-692.863c0-20.466-16.628-37.456-37.37-37.456h-204.577c-20.743 0-37.28 16.995-37.28 37.456v692.863c0 20.833 16.537 36.822 37.28 36.822h204.577zM858.618 895.574c20.833 0 37.28-16.079 37.28-36.822v-692.863c0-20.466-16.628-37.456-37.28-37.456h-204.485c-20.833 0-37.189 16.995-37.189 37.456v692.863c0 20.833 16.537 36.822 37.189 36.822h204.485z"></path>
</svg>
