<?xml version="1.0" encoding="utf-8"?>
<!-- Generator: Adobe Illustrator 22.0.1, SVG Export Plug-In . SVG Version: 6.00 Build 0)  -->
<svg version="1.1" id="Слой_1" xmlns="http://www.w3.org/2000/svg" xmlns:xlink="http://www.w3.org/1999/xlink" x="0px" y="0px"
	 viewBox="0 0 496 496" style="enable-background:new 0 0 496 496;" xml:space="preserve">
<path d="M248.4,0c-137,0-248,111-248,248s111,248,248,248s248-111,248-248S385.4,0,248.4,0z M248.4,448c-110.5,0-200-89.5-200-200
	s89.5-200,200-200s200,89.5,200,200S358.9,448,248.4,448z M230.9,334.7h-14.2c-41.1-6.7-72.5-42.5-72.5-85.5
	c0-14.4,3.7-27.9,9.9-39.8l10.6,14.7c7.7,10.7,24.4,7.7,28-5l20.1-72.4c2.8-10.1-4.8-20-15.2-20l-72.3,0.1
	c-12.8,0-20.3,14.6-12.8,25l19.5,27.1c-14.2,19.8-22.6,44.1-22.6,70.3c0,60.6,44.5,110.9,102.5,119.8c1.6,0.2,3.1,0.2,4.6,0v0.2
	h14.2c9.4,0,17.1-7.7,17.1-17.1v-0.3C248,342.4,240.4,334.7,230.9,334.7L230.9,334.7z M383.5,344.2l-19.6-27.1
	c14.2-19.8,22.6-44.1,22.6-70.3c0-60.6-44.5-110.9-102.5-119.9c-1.6-0.2-3.1-0.2-4.6,0v-0.2h-14.2c-9.4,0-17.1,7.7-17.1,17.1v0.3
	c0,9.5,7.7,17.1,17.1,17.1h14.2c41.1,6.7,72.5,42.5,72.5,85.5c0,14.4-3.7,27.9-9.9,39.8l-10.6-14.7c-7.7-10.7-24.4-7.7-28,5
	l-20.1,72.4c-2.8,10.1,4.8,20,15.2,20l72.3-0.1C383.6,369.2,391,354.6,383.5,344.2L383.5,344.2z"/>
</svg>
