<?xml version="1.0" encoding="iso-8859-1"?>
<!-- Generator: Adobe Illustrator 17.1.0, SVG Export Plug-In . SVG Version: 6.00 Build 0)  -->
<!DOCTYPE svg PUBLIC "-//W3C//DTD SVG 1.1//EN" "http://www.w3.org/Graphics/SVG/1.1/DTD/svg11.dtd">
<svg version="1.1" id="Capa_1" xmlns="http://www.w3.org/2000/svg" xmlns:xlink="http://www.w3.org/1999/xlink" x="0px" y="0px"
	 viewBox="0 0 373 373" style="enable-background:new 0 0 373 373;" xml:space="preserve">
<g>
	<path d="M174,236.5H90.685C62.737,236.5,40,213.837,40,185.98c0-22.646,14.723-41.875,35-48.44v9.984
		c0,6.132,3.783,10.415,9.2,10.415c2.074,0,4.167-0.649,6.222-1.929l46.959-29.231c3.511-2.188,5.525-5.477,5.525-9.024
		c0-3.535-2.001-6.808-5.493-8.983l-46.99-29.229c-2.056-1.28-4.149-1.93-6.223-1.93c-5.417,0-9.2,4.283-9.2,10.415v8.408
		c-42.531,7.34-75,44.697-75,89.545c0,49.913,40.681,90.52,90.685,90.52H174c11.046,0,20-8.954,20-20S185.046,236.5,174,236.5z"/>
	<path d="M373,186.52c0-50.188-40.681-91.02-90.685-91.02H199c-11.046,0-20,8.954-20,20s8.954,20,20,20h83.315
		c27.948,0,50.685,22.887,50.685,51.02c0,22.535-14.723,41.669-35,48.202v-9.246c0-6.132-3.783-10.415-9.2-10.415
		c-2.074,0-4.167,0.649-6.222,1.929l-46.959,29.231c-3.511,2.188-5.525,5.477-5.525,9.024c0,3.535,2.001,6.808,5.493,8.983
		l46.99,29.229c2.056,1.28,4.149,1.93,6.223,1.93c5.417,0,9.2-4.283,9.2-10.415v-9.153c18.378-3.114,35.281-11.796,48.664-25.255
		C363.647,233.483,373,210.739,373,186.52z"/>
</g>
<g>
</g>
<g>
</g>
<g>
</g>
<g>
</g>
<g>
</g>
<g>
</g>
<g>
</g>
<g>
</g>
<g>
</g>
<g>
</g>
<g>
</g>
<g>
</g>
<g>
</g>
<g>
</g>
<g>
</g>
</svg>
