<?xml version="1.0" encoding="utf-8"?>
<!-- Generator: Adobe Illustrator 22.0.1, SVG Export Plug-In . SVG Version: 6.00 Build 0)  -->
<svg version="1.1" id="Слой_1" xmlns="http://www.w3.org/2000/svg" xmlns:xlink="http://www.w3.org/1999/xlink" x="0px" y="0px"
	 viewBox="0 0 500 500" style="enable-background:new 0 0 500 500;" xml:space="preserve">
<path d="M250,0.6c-137,0-248,111-248,248s111,248,248,248s248-111,248-248S387,0.6,250,0.6z M250,448.6c-110.5,0-200-89.5-200-200
	s89.5-200,200-200s200,89.5,200,200S360.5,448.6,250,448.6z M351.8,186.4l-62.2,62.2l62.2,62.2c4.7,4.7,4.7,12.3,0,17l-22.6,22.6
	c-4.7,4.7-12.3,4.7-17,0L250,288.2l-62.2,62.2c-4.7,4.7-12.3,4.7-17,0l-22.6-22.6c-4.7-4.7-4.7-12.3,0-17l62.2-62.2l-62.2-62.2
	c-4.7-4.7-4.7-12.3,0-17l22.6-22.6c4.7-4.7,12.3-4.7,17,0L250,209l62.2-62.2c4.7-4.7,12.3-4.7,17,0l22.6,22.6
	C356.5,174.1,356.5,181.7,351.8,186.4L351.8,186.4z"/>
</svg>
