<?xml version="1.0" encoding="utf-8"?>
<!-- Svg Vector Icons : http://www.onlinewebfonts.com/icon -->
<!DOCTYPE svg PUBLIC "-//W3C//DTD SVG 1.1//EN" "http://www.w3.org/Graphics/SVG/1.1/DTD/svg11.dtd">
<svg version="1.1" xmlns="http://www.w3.org/2000/svg" xmlns:xlink="http://www.w3.org/1999/xlink" x="0px" y="0px" viewBox="0 0 1000 1000" enable-background="new 0 0 1000 1000" xml:space="preserve">
<metadata> Svg Vector Icons : http://www.onlinewebfonts.com/icon </metadata>
<g><g transform="matrix(1 0 0 -1 0 1920)"><path d="M663.3,991.3c-11.2,0-20.8,4-28.8,12c-8,8-12,17.6-12,28.8v571.7H459.2l265.4,265.4L990,1603.8H826.7v-571.7c0-11.2-4-20.8-12-28.8c-8-8-17.6-12-28.8-12H663.3z M275.4,970.8L10,1236.2h163.3v571.7c0,11.2,4,20.8,12,28.8c8,8,17.6,12,28.8,12h122.5c11.2,0,20.8-4,28.8-12c8-8,12-17.6,12-28.8v-571.7h163.3L275.4,970.8z"/></g></g>
</svg>