<!-- Generated by IcoMoon.io -->
<svg version="1.1" xmlns="http://www.w3.org/2000/svg" width="32" height="32" viewBox="0 0 32 32">
<title>success</title>
<path d="M16 29.903c-3.641 0-7.172-1.434-9.71-4.083-5.407-5.407-5.407-14.124 0-19.531 2.648-2.648 6.069-4.083 9.71-4.083s7.172 1.434 9.71 4.083c5.407 5.407 5.407 14.124 0 19.531-2.538 2.648-6.069 4.083-9.71 4.083zM16 4.524c-3.090 0-6.069 1.214-8.166 3.421-4.524 4.414-4.524 11.807 0 16.331s11.917 4.524 16.331 0c4.524-4.524 4.524-11.917 0-16.441-2.097-2.097-5.076-3.31-8.166-3.31zM24.938 25.048v0 0zM14.345 21.407c-0.331 0-0.552-0.11-0.772-0.331l-4.634-4.634c-0.441-0.441-0.441-1.103 0-1.545s1.103-0.441 1.545 0l3.862 3.862 7.172-7.172c0.441-0.441 1.103-0.441 1.545 0s0.441 1.103 0 1.545v0l-7.945 7.945c-0.221 0.221-0.441 0.331-0.772 0.331z"></path>
</svg>
