<!-- Generated by IcoMoon.io -->
<svg version="1.1" xmlns="http://www.w3.org/2000/svg" width="32" height="32" viewBox="0 0 32 32">
<title>user</title>
<path d="M16.069 17.512c-0.963 0-1.891-0.238-2.766-0.709-0.825-0.444-1.563-1.075-2.191-1.878-1.259-1.603-1.953-3.725-1.953-5.969s0.694-4.366 1.953-5.969c0.628-0.8 1.366-1.431 2.191-1.878 0.872-0.472 1.803-0.709 2.766-0.709s1.891 0.237 2.766 0.709c0.825 0.444 1.563 1.075 2.191 1.878 1.259 1.603 1.953 3.725 1.953 5.969s-0.694 4.366-1.953 5.969c-0.628 0.8-1.366 1.431-2.191 1.878-0.875 0.472-1.806 0.709-2.766 0.709zM16.069 2.188c-1.325 0-2.588 0.675-3.55 1.903-1.012 1.291-1.572 3.019-1.572 4.869s0.559 3.575 1.572 4.869c0.963 1.228 2.225 1.903 3.55 1.903s2.587-0.675 3.55-1.903c1.012-1.291 1.572-3.019 1.572-4.869s-0.559-3.575-1.572-4.869c-0.962-1.228-2.225-1.903-3.55-1.903zM26.394 29.922c1.391-0.572 2.462-1.991 2.794-3.709 0.344-1.769-0.159-3.466-1.378-4.669-0.309-0.369-0.981-1-3.047-2.253-1.212-0.734-2.734-1.581-4.522-2.512-0.438-0.228-0.975-0.059-1.203 0.378s-0.059 0.975 0.378 1.203c3.806 1.984 6.441 3.609 7.047 4.35 0.022 0.028 0.047 0.053 0.072 0.078 0.803 0.778 1.131 1.9 0.903 3.081-0.219 1.122-0.897 2.066-1.734 2.403-0.012 0.006-0.025 0.009-0.038 0.016-2.281 1.050-5.766 1.65-9.566 1.65-0.022 0-0.041 0-0.063 0-3.741-0.006-7.238-0.622-9.35-1.644-0.003 0-0.003-0.003-0.006-0.003-1.197-0.569-1.975-1.512-2.134-2.594-0.153-1.034 0.269-2.059 1.184-2.891 0.034-0.031 0.063-0.063 0.091-0.097 1.178-1.447 5.591-3.55 7.041-4.241 0.444-0.212 0.634-0.744 0.422-1.191-0.213-0.444-0.744-0.634-1.191-0.422-4.3 2.050-6.588 3.453-7.612 4.672-1.319 1.222-1.938 2.831-1.7 4.431 0.247 1.678 1.391 3.116 3.131 3.944 2.378 1.15 6.066 1.813 10.122 1.819 0.022 0 0.044 0 0.063 0 4.044 0.006 7.791-0.653 10.297-1.8z"></path>
</svg>
