<!-- Generated by IcoMoon.io -->
<svg version="1.1" xmlns="http://www.w3.org/2000/svg" width="32" height="32" viewBox="0 0 32 32">
<title>zoom-in</title>
<path d="M30.469 31.803c-0.341 0-0.681-0.131-0.944-0.391l-6.081-6.084c-1.066 0.884-2.247 1.603-3.528 2.144-1.75 0.741-3.609 1.116-5.525 1.116s-3.775-0.375-5.525-1.116c-1.691-0.716-3.209-1.738-4.509-3.041-1.306-1.303-2.328-2.822-3.044-4.512-0.741-1.75-1.116-3.609-1.116-5.525s0.375-3.775 1.116-5.525c0.716-1.691 1.737-3.209 3.041-4.513s2.822-2.328 4.513-3.041c1.75-0.741 3.609-1.116 5.525-1.116s3.775 0.375 5.525 1.116c1.691 0.716 3.209 1.738 4.509 3.041 1.303 1.303 2.325 2.822 3.041 4.513 0.741 1.75 1.116 3.609 1.116 5.525s-0.375 3.775-1.116 5.525c-0.541 1.278-1.259 2.459-2.141 3.525l6.081 6.081c0.522 0.522 0.522 1.366 0 1.884-0.256 0.262-0.597 0.394-0.938 0.394zM14.394 2.866c-6.356 0-11.528 5.172-11.528 11.528s5.172 11.528 11.525 11.528c3.119 0 5.95-1.244 8.028-3.262 0.034-0.044 0.072-0.087 0.113-0.128s0.084-0.078 0.128-0.113c2.016-2.078 3.259-4.909 3.259-8.025 0-6.356-5.169-11.528-11.525-11.528zM14.394 20.55c-0.738 0-1.334-0.597-1.334-1.334v-3.488h-3.491c-0.738 0-1.334-0.597-1.334-1.334s0.597-1.334 1.334-1.334h3.491v-3.491c0-0.738 0.597-1.334 1.334-1.334s1.334 0.597 1.334 1.334v3.491h3.487c0.738 0 1.334 0.597 1.334 1.334s-0.597 1.334-1.334 1.334h-3.488v3.488c0 0.738-0.597 1.334-1.334 1.334z"></path>
</svg>
