<!-- Generated by IcoMoon.io -->
<svg version="1.1" xmlns="http://www.w3.org/2000/svg" width="32" height="32" viewBox="0 0 32 32">
<title>zoom-out</title>
<path d="M31.163 29.275l-5.966-5.962c0.863-1.044 1.566-2.2 2.097-3.453 0.728-1.725 1.1-3.553 1.1-5.438s-0.369-3.716-1.1-5.438c-0.703-1.662-1.712-3.159-2.994-4.441s-2.778-2.291-4.441-2.994c-1.725-0.728-3.553-1.1-5.438-1.1s-3.716 0.369-5.438 1.1c-1.662 0.703-3.159 1.712-4.441 2.994s-2.291 2.778-2.994 4.441c-0.728 1.722-1.1 3.553-1.1 5.438s0.369 3.716 1.1 5.438c0.703 1.663 1.712 3.159 2.994 4.441s2.778 2.291 4.441 2.994c1.722 0.728 3.553 1.1 5.438 1.1s3.716-0.369 5.438-1.1c1.253-0.531 2.409-1.231 3.453-2.097l5.963 5.962c0.259 0.259 0.6 0.391 0.944 0.391 0.341 0 0.681-0.131 0.944-0.391 0.519-0.519 0.519-1.363 0-1.884zM14.419 25.725c-6.231 0-11.303-5.072-11.303-11.306s5.072-11.303 11.303-11.303 11.306 5.072 11.306 11.303c0 3.063-1.225 5.844-3.209 7.881-0.041 0.031-0.078 0.066-0.113 0.1-0.038 0.038-0.069 0.075-0.1 0.113-2.038 1.991-4.822 3.212-7.884 3.212v0zM19.159 13.088h-9.478c-0.738 0-1.334 0.597-1.334 1.334s0.597 1.334 1.334 1.334h9.478c0.738 0 1.334-0.597 1.334-1.334s-0.597-1.334-1.334-1.334z"></path>
</svg>
